<?xml version="1.0"?>
<svg xmlns="http://www.w3.org/2000/svg" viewBox="0 0 50 50">
    <path d="M 24.6875 2 L 2.6875 9 C 2.2875 9.2 2 9.6 2 10 L 2 47 C 2 47.6 2.4 48 3 48 L 8 48 L 8 17 C 8 16.4 8.4 16 9 16 L 41 16 C 41.6 16 42 16.4 42 17 L 42 48 L 47 48 C 47.6 48 48 47.6 48 47 L 48 10 C 48 9.6 47.7125 9.2 47.3125 9 L 25.3125 2 L 24.6875 2 z M 10 18 L 10 48 L 40 48 L 40 18 L 10 18 z M 22 42 L 28 42 C 28.6 42 29 42.4 29 43 C 29 43.6 28.6 44 28 44 L 22 44 C 21.4 44 21 43.6 21 43 C 21 42.4 21.4 42 22 42 z"/>
</svg>
