<?xml version="1.0"?>
<svg xmlns="http://www.w3.org/2000/svg" viewBox="0 0 50 50">
    <path d="M 24.6875 2 L 2.6875 9 C 2.2875 9.2 2 9.6 2 10 L 2 47 C 2 47.6 2.4 48 3 48 L 8 48 C 8.6 48 9 47.6 9 47 L 9 17.09375 C 9 16.49375 9.49375 16 10.09375 16 L 39.90625 16 C 40.50625 16 41 16.49375 41 17.09375 L 41 47 C 41 47.6 41.4 48 42 48 L 47 48 C 47.6 48 48 47.6 48 47 L 48 10 C 48 9.5 47.7125 9.1 47.3125 9 L 25.3125 2 L 24.6875 2 z M 11 18 L 11 26 L 39 26 L 39 18 L 11 18 z M 22 21 L 28 21 C 28.6 21 29 21.4 29 22 C 29 22.6 28.6 23 28 23 L 22 23 C 21.4 23 21 22.6 21 22 C 21 21.4 21.4 21 22 21 z"/>
</svg>
